<svg xmlns="http://www.w3.org/2000/svg" xmlns:xlink="http://www.w3.org/1999/xlink" width="560" height="633.008" viewBox="0 0 560 633.008"><defs><clipPath id="a"><rect width="560" height="633.008" fill="none"/></clipPath><clipPath id="c"><rect width="288.846" height="28.102" fill="none"/></clipPath></defs><g transform="translate(280 316.504)"><g transform="translate(-280 -316.504)" clip-path="url(#a)"><path d="M124.854,807.184,92.337,821.231,79.6,849.284,85.334,885l17.2,23.589L138.9,924.229l41.036,1.6,61.594-10.894,66.3-17.2L345.594,875.9l-1.8-6.594-2.252-7.249-3.645-7.495-2.5-5.242-42.919-3.4-47.138,4.013-40.79-4.464-9.542-4.464-15.317-23.589L155.446,805.3Z" transform="translate(-47.001 -475.5)" fill="#dc000c"/><g clip-path="url(#a)"><path d="M362.187,904.6,357.6,938.96s5.283-15.521,24.572-20.395a43.859,43.859,0,0,1,20.19,0l6.143-10.689Z" transform="translate(-211.15 -534.133)" fill="#a70005"/><path d="M713,907.1l9.788,28.586,22.238-5.447,11.549-8.4,5.242-17.242H756.37l-13.146,4.1-16.586.655Z" transform="translate(-421.001 -534.133)" fill="#fff"/><path d="M759.747,932s-11.795,7.74-22.443,9.87a178.7,178.7,0,0,1-25.1,3.44l5.447,7s8.682-.328,24.367-5.119c16.463-5,24.777-15.89,24.777-15.89l-4.546.491" transform="translate(-420.528 -549.899)" fill="#030000"/><g transform="translate(214.433 460.401)" opacity="0.2"><g clip-path="url(#c)"><path d="M812.446,1138.247c0,7.74-64.666,14.047-144.4,14.047S523.6,1145.987,523.6,1138.247s64.666-14.047,144.443-14.047,144.4,6.307,144.4,14.047" transform="translate(-523.6 -1124.2)"/></g></g><path d="M776.146,1056.056l-2.662,12.163-2.867,7.208-12.163-4.955-19.985-4.136-17.119.819-12.859,7.044s-3.153,10.443-2.744,11.1,10.689,9.829,10.689,9.829,19.944,1.515,20.559,1.72,23.1-1.229,23.712-1.229,21.623-4.136,21.623-4.136l8.641-7,13.187,9.46,17.569,4.177s23.1,2.048,24.531,2.048,21.828-4.75,21.828-4.75l5.365-8.232-8.027-9.46-16.914-6.389-13.8-1.638-14.62,2.048-12.573,2.908-2.048.2-1.638-9.051.287-11.3L794,1055.524l-10.648-.655Z" transform="translate(-416.696 -622.644)" fill="#fff"/><path d="M766.584,1052.2a114.628,114.628,0,0,1-1.474,11.958,21.507,21.507,0,0,1-2.539,6.88,59.417,59.417,0,0,0-39.684-9.706c-23.1,2.744-32.026,18.552-26.784,26.784s23.63,10.812,46.114,9.46c26.743-1.638,41.036-6.88,42.551-12.941s-.737-31.289-.737-31.289l-5-.409s3.276,26.743-.328,31.084-23.425,7.9-38.087,8.478c-13.679.573-32.312,1.843-36.981-7.29s10.238-17.2,20.927-18.388c23.753-2.662,38.865,10.32,40.053,10.074s4.136-4.792,4.873-11.016l1.6-13.433Z" transform="translate(-410.165 -621.286)" fill="#030000"/><path d="M814.211,1056.973c-19.412-.86-23.344,28.012-1.065,29.077s20.477-28.217,1.065-29.077" transform="translate(-471.183 -624.093)" fill="#030000"/><path d="M819.84,1065.981c-14.088-.614-16.914,20.149-.778,20.927s14.825-20.313.778-20.927" transform="translate(-477.14 -629.415)" fill="#dc000c"/><path d="M911.077,1051.415s-1.27,30.8.942,33.459,23.63,16.054,57.089,14.948c34.893-1.147,34.237-16.177,23.589-26.21-7.249-6.839-22.934-10.484-43.206-8.15s-20.354,4.259-20.354,4.259-.655-.942-1.065-6.8a91.106,91.106,0,0,1,.287-12.9l-4.546-.123s-1.147,9.952-.819,15.03,1.6,9.46,2.744,10.2,8.682-3.072,22.811-4.136,32.886-1.761,41.24,11.631c4.1,6.553-4.874,11.057-21.705,11.59-36.162,1.188-50.332-11.344-51.561-12.614-2.662-2.744-.86-30.265-.86-30.265Z" transform="translate(-537.744 -619.928)" fill="#030000"/><path d="M952.911,1059.973c-19.412-.86-23.343,28.012-1.065,29.077s20.477-28.217,1.065-29.077" transform="translate(-553.081 -625.864)" fill="#030000"/><path d="M958.54,1069.081c-14.088-.614-16.914,20.149-.778,20.927s14.825-20.313.778-20.927" transform="translate(-559.038 -631.245)" fill="#dc000c"/><path d="M1028.9,15.929c6.348,1.474-.983,18.921-7.331,32.763s-16.259,36.572-20.19,35.671,1.433-19.494,8.232-38.128,15.317-31.248,19.289-30.306" transform="translate(-590.489 -9.376)" fill="#d4d5d5"/><path d="M998.15,77.881c-2.252-.655,8.723-34.974,16.218-51.028,5.734-12.163,8.764-13.31,10.525-13.105s3.563,4.136-2.211,17.733-20.723,43.165-23.262,45.827c-.9.9-1.106.532-1.27.573s-3.481,6.1-3.481,6.1,2.171,2.089,4.751-1.147c3.6-4.669,27.152-48.161,30.551-62s-6.839-16.34-13.72-3.645c-9.051,16.586-24.982,63.028-21.542,66.8Z" transform="translate(-587.058 -5.271)" fill="#030000"/><path d="M1042.707,71.014s-1.474-4.054-9.5-4.914l-1.106,2.048s7.945.614,9.5,4.833Z" transform="translate(-609.418 -39.03)" fill="#030000"/><path d="M1048.79,59.765s-1.6-4.423-10.4-5.365l-1.188,2.252s8.682.655,10.32,5.242Z" transform="translate(-612.429 -32.121)" fill="#030000"/><path d="M972.609,185.1a236.151,236.151,0,0,0-9.665,29.487c-3.563,14.661-7.044,32.394-7.044,32.394l2.99.41s1.106-11.467,6.553-32.476,10.034-28.422,10.034-28.422Z" transform="translate(-564.424 -109.295)" fill="#030000"/><path d="M668.988,751.9l-8.027,2.252L659.2,763.9l10.034,20.559,19.822,14.006,14.293,9.01L715.1,811l14.006,2.99-.983,10.279-8.273,14.784-7.781,5s.737,12.286,9.5,14.539,18.02,7.249,36.285,7,32.067-.737,40.3-6.512,9.5-13.023,9.5-13.023l-9.5-8.027-7.495-16.013-2.5-8.027,26.047-7.249,25.555-15.767,8.027-12.532,4.751-19.576L848,751.083l-38.5-.983-79.368,4.5Z" transform="translate(-389.234 -442.907)" fill="#fff"/><path d="M775.345,964.667l-6.266-2.867-8.15.86-3.645,6.266s-.246,6.757.123,7.126,6.389,8.641,6.389,8.641,20.272,16.013,52.707,15.4c27.029-.491,45.049-5,53.445-11.876s10.4-12.286,9.87-15.644-8.4-10.525-8.4-10.525l-8.641.737-5.9,1.147,7.249,6.512-3.112,6.143-9.5,6.02-15.03,4.5-22.033,2.007-21.05-4.5-13.023-4.505-7-6.512-4.628-5.242Z" transform="translate(-447.102 -567.908)" fill="#dc000c"/><path d="M735.821,244.546c-57.048-1.966-92.187,23.548-105.7,48.571s-18.02,55.246-18.02,80.638c0,33.05,19.535,63.11,19.535,63.11s4.013-2.007,8.027-14.538a194.165,194.165,0,0,0,5.979-25.064s-3.031-16.013-1.515-28.053,5-26.046,5-26.046-14.211-1.065-16.054-22.033c-.983-11.508,14.539-32.067,26.579-33.05a85,85,0,0,1,34.565,4.5s12-10.034,37.555-7.495,46.564,8.518,62.577,29.036,18.511,38.046,18.02,58.072-2.007,29.036,2.007,43.083,9.5,20.026,9.5,20.026,24.04-23.548,18.511-83.136-34.565-79.614-52.584-90.139-25.023-16.545-54.059-17.528" transform="translate(-361.423 -144.333)" fill="#fff"/><path d="M667.035,626.2s-2.99,20.518-7.535,27.521-12,13.023-12,13.023l10.525,7.495,10.976.45,1.065-17.446,3.522-8.027Z" transform="translate(-382.325 -369.748)" fill="#0092e5"/><path d="M1089.412,626.2s2.99,20.518,7.495,27.521,12,13.023,12,13.023l-21.46,11.139-1.024-20.641-3.522-8.027Z" transform="translate(-639.413 -369.748)" fill="#0092e5"/><path d="M678.616,740.541,666.043,744.8s-11.221,20.19,34.442,34.032c32.231,9.788,52.011,8.314,52.011,8.314s4.013,15.194,9.5,15.685,11.18-15.849,11.18-15.849,32.681-4.341,50.25-10.73c34.032-12.327,27.644-22.033,27.644-22.033l-3.031-10.894-8.477.9S825.558,769.782,793,773.263s-77.116-4.013-97.142-15.03S678.616,740.5,678.616,740.5" transform="translate(-392.555 -437.238)" fill="#dc000c"/><path d="M774.522,344.772c-50.045.532-75.4,37.718-80.638,63.11-7.7,37.227,3.85,71.587,3.85,71.587s-4.833,13.023-3.85,25.023,22.074,42.551,84.651,40.544,80.638-32.067,80.638-45.581-7.658-20.723-7.658-20.723,9.174-28.872,7.167-55.41-11.631-79.327-84.119-78.631" transform="translate(-408.151 -203.523)" fill="#fee3c9"/><path d="M785.465,347.011s-21.787-8.682-36.776-7.167-30.06,9.01-30.06,9.01-19.535-8.518-37.063-2.5S645.977,372.4,656.5,386.408a25.917,25.917,0,0,0,26.088,10.034l17.528-18.02,10.034-11.017,14.539-5-7,17.037,4.013,15.03,11.017,4.5,11.508-3.522,6.471-19.084,5.529-13.515,12.491-11.017Z" transform="translate(-385.798 -200.561)" fill="#0092e5"/><path d="M701.486,655.227c-7.576,2.99-16.381,14.784-15.153,28.258s18.224,46.851,87.354,46.482c63.273-.328,86.085-30.674,84.856-51.683-.778-13.105-8.641-19.617-14.17-21.337s-5.57,2.744-.942,5.529,8.641,6.184,8.928,15.153c.655,19.74-24.326,46.114-75.887,45.786-60.161-.328-81.743-24.49-83.013-41.322s5.9-19.617,10.525-22.4,2.785-6.553-2.457-4.464" transform="translate(-405.187 -386.531)" fill="#030000"/><path d="M715.018,342.781c-8.15-4.464-37.636-12.9-56.8,7.617s-9.174,47.834,11.139,49.922c19.166,1.966,30.265-25.146,38.292-30.756s12.941-5.283,12.941-5.283l2.457-6.266s-6.471-.655-17.282,5.283c-11.426,6.307-20.682,32.722-37.35,27.767-12.532-3.727-16.627-22.647-3.4-35.712s40.135-10.279,48.2-5.57c6.8,3.973,10.853-2.048,1.843-7" transform="translate(-382.598 -199.115)" fill="#030000"/><path d="M819.026,366.512c-7.044,1.884-23.876,10.812-19.125,33.254s31.371,20.108,37.022,1.188c2.785-9.3,4.013-25.432,15.439-33.541,8.559-6.061,17.979-5.733,22.156-5.16,1.392.164,6.8,1.761,6.8,1.761l-9.87-6.471s-14.948-.983-24.7,6.88c-14.825,11.958-12.04,30.06-18.511,38.333s-20.968,4.792-21.91-6.88,5.856-21.542,13.556-25.146,5.856-5.979-.942-4.177" transform="translate(-471.821 -211.093)" fill="#030000"/><path d="M688.774,480.4s-7.454,20.272-6.184,42.592c1.556,26.865,8.641,41.732,8.641,41.732l5.242-5.447s-5.856-11.18-7.085-36.858c-1.556-32.312,6.184-41.158,6.184-41.158Z" transform="translate(-402.959 -283.659)" fill="#030000"/><path d="M801.1,342.564s12.655-11.426,41.036-10.034c32.19,1.556,82.685,19.658,84.528,83.3,1.229,42.1-8.641,60.407-8.641,60.407l-4.914-3.768s7.986-28.381,7.085-55.738c-1.229-37.145-26.21-76.338-77.73-77.812-30.265-.86-34.237,7.986-34.237,7.986" transform="translate(-473.02 -196.278)" fill="#030000"/><path d="M657.906,558.9s4.177,27.808-3.645,48.776c-5.733,15.358-14.661,18.142-14.661,18.142s3.154,6.757,12.122,10.034,12.7,2.252,12.7,2.252l-.655-4.832s-3.932.532-9.993-1.6c-5.16-1.843-6.839-5.16-6.839-5.16s7.044-4.914,11.385-16.791a94.724,94.724,0,0,0,5.816-26.579Z" transform="translate(-377.661 -330.01)" fill="#030000"/><path d="M1097.971,558.9s-4.177,27.808,3.645,48.776c5.734,15.358,14.662,18.142,14.662,18.142s-3.154,6.757-12.122,10.034S1091.5,638.1,1091.5,638.1l.655-4.832s3.932.532,9.993-1.6c5.16-1.843,6.839-5.16,6.839-5.16s-7.044-4.914-11.385-16.791a94.724,94.724,0,0,1-5.815-26.579Z" transform="translate(-644.491 -330.01)" fill="#030000"/><path d="M625.808,430.892s-25.35-27.07-22.443-88.132c3.6-75.109,64.543-110.042,122.328-109.182,64.5.983,114.67,46.523,115.2,116.6s-21.3,82.194-21.3,82.194l-4.628-4.013s21.828-10.361,19.9-76.051c-2.048-70.6-53.936-108.2-110.206-109.715s-112.622,35.22-115.2,102.3c-2.252,58.6,20.764,82.522,20.764,82.522Z" transform="translate(-356.128 -137.91)" fill="#030000"/><path d="M662.388,738.3s-11.713,1.024-11.3,14.784c.45,16.013,15.562,36.408,42.837,47.26,15.03,6.02,31.9,9.542,37.923,8.887,3.768-.41,4.751-4.1-3.072-4.792-9.01-.819-24.449-5-36.9-11.631-24.245-12.9-34.483-24.367-34.483-40.5,0-13.883,15.808-10.566,15.808-10.566Z" transform="translate(-384.436 -435.939)" fill="#030000"/><path d="M764.342,458.593c-10.689-1.843-13.924,31.043-12.9,52.093s1.556,38.537,11.344,38.537,11.344-21.05,11.344-41.568-1.024-47.588-9.788-49.062" transform="translate(-443.593 -270.739)" fill="#030000"/><path d="M997.042,449.993c-10.689-1.843-13.924,31.043-12.9,52.093s1.556,38.537,11.344,38.537,11.344-21.05,11.344-41.568-1.024-47.588-9.788-49.062" transform="translate(-580.994 -265.661)" fill="#030000"/><path d="M668.069,747.523s-9.051,11.467,7.986,21.787,40.053,16.873,54.673,18.634,20.395,1.188,21.5,2.744,2.99,13.76,8.559,13.6,7.044-13.6,9.092-14.7,28.3-3.522,43.124-8.191,26.866-9.3,32.8-18.02-4.341-15.767-4.341-15.767l4.71-.164s9.46,8.723,4.751,17.2c-5.324,9.583-21.91,15.972-36.408,20.886-20.682,7-40.667,7-42.223,8.436s-4.669,14.989-12,14.661-9.87-12.941-11.3-14.047-6.389-1.638-18.8-3.031c-20.845-2.334-41.814-7.454-58.031-19.248-17.119-12.409-8.15-24.9-8.15-24.9Z" transform="translate(-390.69 -441.313)" fill="#030000"/><path d="M729.747,590.23s-12.409,5.488-13.76-.614,3.563-7.044,3.194-8.068-10.607,2.5-9.5,9.419c.819,5.078,3.891,7.372,9.747,7.372s11.139-5.734,11.139-5.734Z" transform="translate(-418.991 -343.28)" fill="#030000"/><path d="M1029.819,588.406s12.778,5.652,14.17-.655-3.686-7.249-3.276-8.314,10.935,2.58,9.747,9.706c-.819,5.2-4.014,7.576-9.993,7.576s-11.467-5.9-11.467-5.9Z" transform="translate(-607.587 -342.029)" fill="#030000"/><path d="M883.534,670.411c.532,1.556,2.252,1.925,1.925-.2s-.573-4.3,1.392-4.669,3.358,2.416,3.686,3.85,2.375,1.761,1.884-.7-1.6-6.757-6.143-5.938-3.317,6.02-2.785,7.658" transform="translate(-521.34 -391.271)" fill="#030000"/><path d="M996.616,686.45c-11.836-1.72-22.279,2.539-23.344,9.542s7.617,14.047,19.453,15.767,22.279-2.58,23.344-9.583-7.658-14.047-19.453-15.726" transform="translate(-574.63 -405.099)" fill="#db2d81"/><path d="M751.21,695.711c-1.229-6.716-10.525-10.443-20.764-8.232s-17.569,9.419-16.341,16.177,10.525,10.443,20.764,8.232,17.569-9.419,16.341-16.177" transform="translate(-421.574 -405.555)" fill="#db2d81"/><path d="M778.928,506.777c0,8.928-2.007,16.177-4.464,16.177S770,515.7,770,506.777s2.007-16.177,4.464-16.177,4.464,7.249,4.464,16.177" transform="translate(-454.657 -289.681)" fill="#fff"/><path d="M1011.828,503.377c0,8.928-2.007,16.177-4.464,16.177s-4.464-7.249-4.464-16.177,2.007-16.177,4.464-16.177,4.464,7.249,4.464,16.177" transform="translate(-592.176 -287.674)" fill="#fff"/><path d="M778.3,633.328a4.751,4.751,0,1,1-4.751-4.628,4.751,4.751,0,0,1,4.751,4.628" transform="translate(-453.951 -371.224)" fill="#fff"/><path d="M1009.6,630.627a4.751,4.751,0,1,1-4.751-4.628,4.751,4.751,0,0,1,4.751,4.628" transform="translate(-590.525 -369.63)" fill="#fff"/><path d="M751.885,698.043c1.515,5.734-4.423,12.163-13.269,14.375s-17.242-.7-18.757-6.43,4.423-12.163,13.269-14.334,17.241.7,18.757,6.389" transform="translate(-424.912 -407.968)" fill="#e87682"/><path d="M1016.993,704.819c-1.024,5.856-10.156,9.255-20.436,7.576s-17.815-7.781-16.791-13.638,10.156-9.255,20.477-7.576,17.815,7.781,16.791,13.638" transform="translate(-578.461 -407.864)" fill="#e87682"/><path d="M879.1,707.238s.778,11.918,8.437,11.795,7.986-11.631,7.986-11.631a34.562,34.562,0,0,0-8.559-1.106,30.094,30.094,0,0,0-7.863.942" transform="translate(-519.077 -417.041)" fill="#dc000c"/><path d="M880.3,707.651v3.072l.287,1.515,2.375-1.352,3.031.164,2.375.7,3.072-.573,2.99.491,1.433.7.409-4.1-1.228-.983L888.2,706.3l-4.874.451Z" transform="translate(-519.785 -417.044)" fill="#9d0002"/><path d="M858.888,692.883c1.352-1.024,3.071-.532,1.966,1.27s-.86,2.785.369,3.481c2.048,1.147,5.2-1.065,11.918-1.147s12,2.334,14.211.655.655-2.908-.164-3.481-.655-2.744,1.147-1.925,4.136,4.833.778,7.167-10.238-.041-15.521,0-11.426,2.539-14.006.983-2.744-5.406-.655-6.962" transform="translate(-506.318 -408.338)" fill="#030000"/><path d="M876.4,708.882s-.123,6.962,3.768,10.4a8.489,8.489,0,0,0,12.532-1.27,14.563,14.563,0,0,0,2.211-8.764L892.7,708.8s.819,5.938-1.966,8.477a7.254,7.254,0,0,1-9.665,0c-3.481-3.4-2.457-8.436-2.457-8.436Z" transform="translate(-517.482 -418.521)" fill="#030000"/><path d="M906.115,718.192s-.737-2.375-4.628-2.5-4.833,2.334-5.037,3.44.532,1.515,1.024.287,1.679-2.211,3.973-2.171a4.873,4.873,0,0,1,4.1,2.048Z" transform="translate(-529.3 -422.588)" fill="#030000"/><path d="M888.859,716.948s-.655-1.27-4.382-1.352-4.177,2.171-4.177,2.171l.492,1.147a5.431,5.431,0,0,1,3.891-1.966c2.416-.041,3.317,1.106,3.317,1.106Z" transform="translate(-519.785 -422.533)" fill="#030000"/><path d="M796.473,904.1s-.164,7.167-5.529,16.177c-5.856,9.87-9.952,11.344-12,12.7-4.832,3.153-3.071,7.658,2.5,3.85,3.686-2.5,9.01-4.669,13.842-14.006a60.905,60.905,0,0,0,5.693-18.02Z" transform="translate(-458.278 -533.838)" fill="#030000"/><path d="M971.773,904.1s.041,7.535,5.406,16.586c5.856,9.87,10.771,13.515,12.9,14.784,5,2.99,2.212,6.962-2.662,4.013-3.809-2.334-8.6-8.068-13.8-17.2-6.02-10.525-6.716-17.037-6.716-17.037Z" transform="translate(-570.919 -533.838)" fill="#030000"/><path d="M772.61,958.79s-18.716-6.921-23.262,7.658c-4.1,13.146,12.778,33.091,61.021,33.582,50.578.491,69.212-18.552,67.082-31.37-2.949-17.979-25.883-9.583-25.883-9.583l1.884,3.891s15.644-5.9,18.306,5.9c1.6,7.044-14.17,27.193-60.775,26.21-45.049-.983-59.874-20.108-56.762-28.708,2.089-5.775,15.726-2.58,15.726-2.58Z" transform="translate(-442.114 -565.144)" fill="#030000"/><path d="M876.778,976.435c-12.245-1.024-17.078,2.293-17.078,8.191s5.734,8.4,16.75,8.4,19.125-1.351,18.511-8.4-6.553-7.249-18.183-8.191" transform="translate(-507.622 -576.44)" fill="#030000"/><path d="M882,982.819c-9.747-.7-13.6,1.556-13.6,5.57s4.587,5.693,13.351,5.693,15.235-.9,14.743-5.693-5.2-4.914-14.5-5.57" transform="translate(-512.759 -580.245)" fill="#dc000c"/><path d="M875.737,942.235c-12.245-1.024-17.037,2.293-17.037,8.191s5.734,8.4,16.75,8.4,19.125-1.351,18.47-8.4-6.512-7.249-18.183-8.191" transform="translate(-507.031 -556.247)" fill="#030000"/><path d="M880.9,948.719c-9.747-.7-13.6,1.556-13.6,5.57s4.587,5.693,13.351,5.693,15.235-.9,14.743-5.693-5.2-4.914-14.5-5.57" transform="translate(-512.109 -560.11)" fill="#dc000c"/><path d="M872.054,905.435c-14.62-1.024-20.354,2.293-20.354,8.191s6.839,8.4,19.985,8.4,22.852-1.351,22.074-8.4-7.822-7.249-21.705-8.191" transform="translate(-502.898 -534.517)" fill="#030000"/><path d="M877.9,913.042c-11.18-.614-15.6,1.392-15.6,5s5.242,5.16,15.317,5.16,17.487-.819,16.914-5.119-5.979-4.423-16.586-5" transform="translate(-509.157 -539.053)" fill="#dc000c"/><path d="M788.242,978.024s-1.761,9.051,18.02,16.5c17.282,6.512,37.923,7.863,56.6,1.27,26.047-9.255,20.927-16.136,20.927-16.136l-2.5-1.024s1.147,6.88-22.156,14.375c-15.235,4.914-33.787,3.768-50.332-2.007S791.027,977,791.027,977Z" transform="translate(-465.405 -576.883)" fill="#030000"/><path d="M97.533,235.9c-4.587,4.136-1.351,245.23,3.85,250.554s189.9,16.914,195.636,12.859,25.35-246.3,23.1-250.186S103.308,230.613,97.492,235.937" transform="translate(-56.293 -138.632)" fill="#340a00"/><path d="M124.426,265.688c-4.054,3.768-1.392,221.436,3.235,226.228s168.647,15.071,173.725,11.426S324.116,280.923,322.109,277.4s-192.523-16.5-197.683-11.713" transform="translate(-72.292 -156.26)" fill="#fff"/><path d="M625.432,891.636l-25.023,3.972-34.114-3.153-3.4-12.327-8.15-16.013-18.1-14.948L522.229,846.3,493.4,848.675l-27.521,23.344L454,902.161l8.068,29.528,18.306,16.586,30.879,10.32,26.333,3.44,30.92-.573,29.773-6.88,37.186-15.439s2.293-10.279-1.147-29.2-8.887-18.306-8.887-18.306" transform="translate(-268.071 -499.709)" fill="#dc000c"/><path d="M879.1,927.384s5.037,5.488,7.7,21.05a67.021,67.021,0,0,1,.2,22.361s16.545-13.105,28.5-26.7c22.975-26.169,12.45-39.193,12.45-39.193l-14.088,1.269s.819,12.45-13.515,17.037-20.927,4.71-20.927,4.71" transform="translate(-519.077 -534.311)" fill="#fff"/><path d="M867.3,960.02s7.658,6.307,9.378,18.88a67.082,67.082,0,0,1-1.147,23.466l4.833-1.638s5.447-8.068,2.048-23.548-9.174-18.88-9.174-18.88Z" transform="translate(-512.109 -565.841)" fill="#180003"/><path d="M551,896.1c-1.6,11.344,6.307,15.767,9.174-.737,3.686-21.255-7.617-50.864-38.169-60.98-21.664-7.126-64.133-2.744-81.989,38.7-13.6,31.575-2.375,86.412,82.931,87.723,74.413,1.147,114.179-34.155,136.949-63.11,21.419-27.193,5.856-37.145,5.856-37.145l-3.358,1.761s12.614,10.116-12.2,37.636c-16.3,18.061-57.7,55.943-126.506,50.209-61.8-5.16-89.443-36.244-70.809-75.805,13.72-29.2,44.066-34.893,66.181-28.176,25.432,7.74,34.729,30.388,31.985,49.882" transform="translate(-256.948 -491.023)" fill="#030000"/><path d="M724.6,927s12.941,10.73,37.35,10.484c45.172-.492,54.222-10.238,59.3-13.965,4.382-3.194,6.8-.9,4.218,2.99s-13.6,16.914-61.1,18.839c-35.548,1.433-38.988-7.044-38.988-7.044Z" transform="translate(-427.85 -544.416)" fill="#030000"/><path d="M893.274,747.578c-1.024-.41-1.679.778-.492,1.679s3.358,1.311,5.57,1.27a6.492,6.492,0,0,0,4.669-1.761c.9-.942.041-2.211-1.024-1.31a6.128,6.128,0,0,1-4.1,1.27c-1.638,0-1.556.164-4.587-1.106" transform="translate(-526.78 -441.163)" fill="#030000"/><path d="M1021.938,742.3s11.18,4.464,9.788,20.026c-3.153,34.933-54.96,49.472-68.966,49.964-6.02.2-7.863-3.317-2.375-4.423,9.542-1.966,62.823-12.45,64.87-49.021.655-12.081-11.262-13.515-11.262-13.515Z" transform="translate(-565.141 -438.301)" fill="#030000"/><path d="M756.314,901.2s-7.535,2.744-24.04,3.645c-15.4.819-22.074-.9-22.074-.9l5,9.706a124.861,124.861,0,0,0,19.985-1.638c17.651-3.071,28.258-8.846,28.258-8.846l-3.522-1.024Z" transform="translate(-419.347 -532.126)" fill="#030000"/><path d="M82.5,849.679l8.15-22.238,20.436-18.593,30.838-2.949,23.835,4.1,24.736,17.241,10.648,19.494-2.7,20.886-7.495,15.644s-18.593,0-19.289.246-35.63-1.147-35.63-1.147l-26.292-8.4L92.247,863.522Z" transform="translate(-48.713 -475.855)" fill="#dc000c"/><path d="M233.486,902.364S186.757,928.451,124.3,916.329c-77.935-15.112-74.044-91.2-45.008-116.8,31.985-28.135,79.86-18.88,102.794,4.71,20.763,21.337,13.842,51.274,1.556,65.813-4.177,5-13.924,8.027-8.846-3.44s14.17-37.022-2.007-54.264c-17.241-18.388-58.4-27.808-86.412-3.891-22.606,19.33-23.3,78.672,33.992,95.176s110.534-9.624,110.534-9.624Z" transform="translate(-35.516 -461.826)" fill="#030000"/><path d="M356,869.8s14.334,7.863,30.715,10.566,23.794,2.621,23.794,2.621l-5.037,10.034A134.921,134.921,0,0,1,384.5,891.26c-17.9-2.662-24.326-7.576-24.326-7.576Z" transform="translate(-210.205 -513.585)" fill="#030000"/><path d="M542.843,914.135c1.106,5.733,1.106,11.549-2.662,17.528s-14.457,7.044-19.043,6.471-5.406,5.365,1.351,6.389c7.986,1.188,20.272-1.351,25.146-9.747s3.112-17.2,1.884-21.46-7.945-5.611-6.675.86" transform="translate(-305.598 -537.156)" fill="#030000"/><path d="M911.985,956.38c0,4.628-2.539,8.354-5.693,8.354s-5.693-3.727-5.693-8.354,4.546-232.78,5.693-232.78,5.693,228.194,5.693,232.78" transform="translate(-531.772 -427.259)" fill="#38b8ef"/><path d="M359.984,713.792s-2.621-5.734-1.392-10.894,19.412-32.435,27.93-41.691A201.977,201.977,0,0,1,401.511,646.3s-15.358,7.085-19.576,11.795c0,0-3.031-.983-16.586,17.364s-17.651,25.6-17.651,25.6-4.054,3.768-.655,7.822,5.652,6.184,7.945,4.464,3.235,2.5,4.955.451" transform="translate(-204.114 -381.617)" fill="#030000"/><path d="M267.983,691.444s-2.7,3.4-9.993-9.665-17-33.009-24.777-38.21-19.043-5.938-24.777-4.873-2.089,2.867-2.334,3.809-3.686-1.31-3.6-.246,6.02,9.788,17.037,13.719,15.194,7.208,19.494,14.129,18.634,23.262,26.62,26.988Z" transform="translate(-119.567 -376.879)" fill="#030000"/><path d="M359.152,713.039s-4.177-1.966-4.5-5.979-7.9-8.682-14.457-5.488.45,9.911,6.184,10.935,10.689,1.065,12.573,2.211Z" transform="translate(-199.309 -413.627)" fill="#030000"/><path d="M308.473,634.281c3.768-.614,6.225-2.007,7.986-4.669a36.24,36.24,0,0,0,9.378-2.621c5.652-2.5,9.3-4.3,11.877-3.481s3.6,2.416,6.757,2.457,1.638-1.229.123-2.58.614-2.457.614-2.457-4.218-7.781-7.74-8.191-5.16.328-6.88,2.211-18.347,11.262-18.47,7.454,1.27-18.961,5.078-18.757,5.774,4.628,5.774,4.628l-1.925-5.856s-3.153-.983-2.908-2.99.246-6.02-2.867-7.167-4.874-.164-6.512,4.136-5.488,12.327-7.7,23.016c0,0-3.276,1.474-3.481,3.891A6.963,6.963,0,0,1,295.9,627.2s8.805,7.74,12.614,7.085" transform="translate(-174.718 -349.448)" fill="#030000"/><path d="M362.561,602.121s-2.949-1.065-3.317-3.645-.082-18.224-.082-18.224,2.58.328,3.932-1.188-4.054-14.743-6.921-11.713-2.785,10.73-3.031,16.75,1.024,10.607-.614,11.426a2.391,2.391,0,0,0-.7,4.013c1.351,1.351,6.061,5.324,6.061,5.324Z" transform="translate(-207.264 -334.735)" fill="#030000"/><path d="M382.687,513.145s10.075-6.1,14.416-9.01a60.22,60.22,0,0,0,8.682-7.535s-10.935,5.119-14.907,4.136-3.6-2.7-5.488-2.539-5.16-.164-8.314,1.515-4.628,3.194-6.716,3.44-5.57,2.13-2.662,6.266,9.747,8.4,11.958,6.593,5.16.9,5.16-.532a37.019,37.019,0,0,0-.328-4.013" transform="translate(-216.456 -293.224)" fill="#030000"/><path d="M389.671,474.4a18.879,18.879,0,0,0,1.311-5.529c-.041-2.13-2.539-2.7-2.457-4.013s-.369-11.057-.369-11.057l-7.617,8.6a6.109,6.109,0,0,0,.328,4.955c1.392,2.211,7.454,6.839,7.454,6.839Z" transform="translate(-224.464 -267.952)" fill="#030000"/><path d="M372.16,440.154s15.48-3.563,21.992-6.716,9.583-5.037,11.017-4.259,7.208,3.031,9.993,1.638-3.481-5.078-3.44-7.29-.328-3.522-3.563-4.71-2.334-4.873-6.716-4.382-3.727,2.539-6.921,4.587a124.356,124.356,0,0,1-19.944,9.911c-7.29,2.621-18.142,3.031-17.979,5.447s1.433,9.952,7.822,8.191a61.551,61.551,0,0,0,7.74-2.416" transform="translate(-210.557 -244.682)" fill="#030000"/><path d="M379.7,375.692s2.212-.737,3.112-5.774-.041-14.006.246-22.811.328-22.893,2.089-24.777,1.679-6.184,3.85-3.481,3.317,3.276,2.048,6.02.246,3.072.983,5.16,1.188,4.382-.532,5.16-1.925,0-2.048,3.031-.573,37.022-.573,37.022Z" transform="translate(-224.199 -187.756)" fill="#030000"/><path d="M407.449,401.632s-2.334-3.072-1.966-5.365,8.15-12.9,11.795-16.381a116.389,116.389,0,0,1,9.911-7.986s-17,1.433-21.05,7.781A89.44,89.44,0,0,1,395.9,392.254l.2,16.3Z" transform="translate(-233.765 -219.593)" fill="#030000"/><path d="M375.986,409.747s-2.949-1.925-3.112-3.194-3.235-1.188-5.733,1.474.491,6.512,2.867,8.518a40.663,40.663,0,0,0,5.979,3.973Z" transform="translate(-216.226 -239.584)" fill="#030000"/><path d="M341.014,406.551a34.278,34.278,0,0,0-.614-6.962c-.737-3.809-5.652-7.863-5.815-10.853s-1.433-6.962-1.392-10.976-.614-5.447-1.351-5.815-.041-4.177-2.908-2.785-4.71,3.276-5.16,11.1-2.007,19.535,7.863,23.548,9.419,2.785,9.419,2.785" transform="translate(-190.96 -217.796)" fill="#030000"/><path d="M256.763,409.409a20.7,20.7,0,0,0,6.471-.123c2.949-.655,6.02-1.474,6.02-2.334s.123-2.007,2.293-1.024,4.833,2.908,5.2,4.71,3.972,2.908,2.539,3.276-6.1-1.761-8.846-1.147a60.819,60.819,0,0,1-13.638,1.8s-2.58.655-2.7,1.966-1.966,4.259-5.938,2.7-10.607-8.6-10.853-11.1.164-4.669,2.539-5.979,2.867-.819,2.867-2.334-.041-6.594,1.515-8.477-.164-2.785-.9-4.3-2.048-4.423,2.089-7.331,8.764-.655,15.276-1.065,10.771.287,13.228,4.71,1.065,5.938,1.065,5.938a48.534,48.534,0,0,0-11.836.082c-5.078.9-5.938.9-6.348,4.054s-1.925,11.713-.082,16.013" transform="translate(-140.086 -223.316)" fill="#030000"/><path d="M177.409,146.1c-13.6,1.6-14.907,2.908-16.5,16.5-1.6-13.6-2.908-14.907-16.5-16.5,13.6-1.6,14.907-2.908,16.5-16.5,1.6,13.6,2.908,14.907,16.5,16.5" transform="translate(-85.263 -76.524)" fill="#ffec00"/><path d="M498.109,88.2c-13.6,1.6-14.907,2.908-16.5,16.5-1.6-13.6-2.908-14.907-16.5-16.5,13.6-1.6,14.907-2.908,16.5-16.5,1.6,13.6,2.908,14.907,16.5,16.5" transform="translate(-274.625 -42.336)" fill="#ffec00"/><path d="M64.509,663.6c-13.6,1.6-14.907,2.908-16.5,16.5-1.6-13.6-2.908-14.907-16.5-16.5,13.6-1.6,14.907-2.908,16.5-16.5,1.6,13.6,2.908,14.907,16.5,16.5" transform="translate(-18.6 -382.089)" fill="#ffec00"/><path d="M346.209,903.4c-13.6,1.6-14.907,2.908-16.5,16.5-1.6-13.6-2.908-14.907-16.5-16.5,13.6-1.6,14.907-2.908,16.5-16.5,1.6,13.6,2.908,14.907,16.5,16.5" transform="translate(-184.933 -523.682)" fill="#ffec00"/><path d="M1186.409,620.7c-13.6,1.6-14.907,2.908-16.5,16.5-1.6-13.6-2.907-14.907-16.5-16.5,13.6-1.6,14.907-2.908,16.5-16.5,1.6,13.6,2.908,14.907,16.5,16.5" transform="translate(-681.041 -356.758)" fill="#ffec00"/><path d="M1270.409,260c-13.6,1.6-14.907,2.908-16.5,16.5-1.6-13.6-2.908-14.907-16.5-16.5,13.6-1.6,14.907-2.908,16.5-16.5,1.6,13.6,2.908,14.907,16.5,16.5" transform="translate(-730.64 -143.778)" fill="#ffec00"/><path d="M604.009,498.8c-13.6,1.6-14.907,2.908-16.5,16.5-1.6-13.6-2.908-14.907-16.5-16.5,13.6-1.6,14.907-2.908,16.5-16.5,1.6,13.6,2.908,14.907,16.5,16.5" transform="translate(-337.155 -284.781)" fill="#ffec00"/><path d="M885.709,71.2c-13.6,1.6-14.907,2.908-16.5,16.5-1.6-13.6-2.908-14.907-16.5-16.5,13.6-1.6,14.907-2.908,16.5-16.5,1.6,13.6,2.908,14.907,16.5,16.5" transform="translate(-503.488 -32.298)" fill="#ffec00"/><path d="M1245.409,837.5c-13.6,1.6-14.907,2.908-16.5,16.5-1.6-13.6-2.907-14.907-16.5-16.5,13.6-1.6,14.907-2.908,16.5-16.5,1.6,13.6,2.908,14.907,16.5,16.5" transform="translate(-715.878 -484.771)" fill="#ffec00"/><path d="M680.808,232.3c-10.075,1.188-11.017,2.171-12.2,12.2-1.188-10.075-2.171-11.017-12.2-12.2,10.075-1.188,11.017-2.171,12.2-12.2,1.188,10.075,2.17,11.017,12.2,12.2" transform="translate(-387.58 -129.961)" fill="#ffec00"/><path d="M135.408,490c-10.075,1.188-11.017,2.171-12.2,12.2-1.188-10.075-2.171-11.017-12.2-12.2,10.075-1.188,11.017-2.171,12.2-12.2,1.188,10.075,2.171,11.016,12.2,12.2" transform="translate(-65.541 -282.124)" fill="#ffec00"/><path d="M249.208,789.7c-10.075,1.188-11.017,2.17-12.2,12.2-1.188-10.075-2.171-11.016-12.2-12.2,10.075-1.188,11.017-2.171,12.2-12.2,1.188,10.075,2.171,11.017,12.2,12.2" transform="translate(-132.736 -459.085)" fill="#ffec00"/><path d="M1211.308,487c-10.075,1.188-11.016,2.171-12.2,12.2-1.188-10.075-2.171-11.017-12.2-12.2,10.075-1.188,11.016-2.171,12.2-12.2,1.188,10.075,2.171,11.017,12.2,12.2" transform="translate(-700.821 -280.352)" fill="#ffec00"/><path d="M1085.508,873.7c-10.075,1.188-11.017,2.171-12.2,12.2-1.188-10.075-2.171-11.017-12.2-12.2,10.075-1.188,11.017-2.171,12.2-12.2,1.188,10.074,2.17,11.017,12.2,12.2" transform="translate(-626.541 -508.684)" fill="#ffec00"/><path d="M617.908,819.7c-10.075,1.188-11.017,2.17-12.2,12.2-1.188-10.075-2.171-11.016-12.2-12.2,10.075-1.188,11.017-2.171,12.2-12.2,1.188,10.075,2.17,11.016,12.2,12.2" transform="translate(-350.44 -476.799)" fill="#ffec00"/><path d="M703.808,1195.4c-10.075,1.188-11.016,2.171-12.2,12.2-1.188-10.074-2.171-11.016-12.2-12.2,10.075-1.188,11.016-2.171,12.2-12.2,1.188,10.075,2.171,11.017,12.2,12.2" transform="translate(-401.161 -698.636)" fill="#ffec00"/><path d="M1047.508,196.3c-10.075,1.188-11.016,2.171-12.2,12.2-1.188-10.075-2.171-11.017-12.2-12.2,10.075-1.188,11.017-2.171,12.2-12.2,1.188,10.075,2.171,11.017,12.2,12.2" transform="translate(-604.103 -108.704)" fill="#ffec00"/><path d="M1313.208,687.8c-10.075,1.188-11.016,2.17-12.2,12.2-1.188-10.075-2.17-11.017-12.2-12.2,10.075-1.188,11.016-2.171,12.2-12.2,1.188,10.075,2.171,11.017,12.2,12.2" transform="translate(-760.99 -398.917)" fill="#ffec00"/><path d="M583.908,1125.4c-10.075,1.188-11.016,2.171-12.2,12.2-1.188-10.075-2.171-11.016-12.2-12.2,10.075-1.188,11.017-2.171,12.2-12.2,1.188,10.075,2.171,11.017,12.2,12.2" transform="translate(-330.364 -657.304)" fill="#ffec00"/><path d="M1193.408,358.1c-10.075,1.188-11.017,2.171-12.2,12.2-1.188-10.075-2.171-11.017-12.2-12.2,10.075-1.188,11.017-2.171,12.2-12.2,1.188,10.075,2.171,11.017,12.2,12.2" transform="translate(-690.252 -204.241)" fill="#ffec00"/><path d="M116.408,338.2c-10.075,1.188-11.017,2.171-12.2,12.2-1.188-10.075-2.171-11.017-12.2-12.2,10.075-1.188,11.017-2.171,12.2-12.2,1.188,10.075,2.171,11.017,12.2,12.2" transform="translate(-54.323 -192.491)" fill="#ffec00"/><path d="M751.808,1085.5c-10.075,1.188-11.016,2.171-12.2,12.2-1.188-10.075-2.171-11.016-12.2-12.2,10.075-1.188,11.017-2.171,12.2-12.2,1.188,10.075,2.17,11.016,12.2,12.2" transform="translate(-429.503 -633.745)" fill="#ffec00"/><path d="M748.777,1275.839c-8.436.983-9.255,1.8-10.238,10.238-.983-8.437-1.8-9.256-10.238-10.238,8.436-.983,9.255-1.8,10.238-10.239.983,8.437,1.8,9.256,10.238,10.239" transform="translate(-430.035 -747.291)" fill="#ffec00"/><path d="M292.208,1021.5c-10.075,1.188-11.017,2.171-12.2,12.2-1.188-10.075-2.171-11.017-12.2-12.2,10.075-1.188,11.017-2.171,12.2-12.2,1.188,10.075,2.171,11.016,12.2,12.2" transform="translate(-158.126 -595.955)" fill="#ffec00"/><path d="M1142.308,260.4c-6.512.778-7.126,1.392-7.9,7.9-.778-6.512-1.392-7.126-7.9-7.9,6.512-.778,7.126-1.392,7.9-7.9.778,6.512,1.392,7.126,7.9,7.9" transform="translate(-665.157 -149.092)" fill="#ffec00"/><path d="M100.308,230.5c-6.512.778-7.126,1.392-7.9,7.9-.778-6.512-1.392-7.126-7.9-7.9,6.512-.778,7.126-1.392,7.9-7.9.778,6.512,1.392,7.126,7.9,7.9" transform="translate(-49.894 -131.437)" fill="#ffec00"/><path d="M767.708,140.6c-6.512.778-7.126,1.392-7.9,7.9-.778-6.512-1.392-7.126-7.9-7.9,6.512-.778,7.126-1.392,7.9-7.9.778,6.512,1.392,7.126,7.9,7.9" transform="translate(-443.97 -78.355)" fill="#ffec00"/><path d="M519.908,222.5c-6.512.778-7.126,1.392-7.9,7.9-.778-6.512-1.392-7.126-7.9-7.9,6.512-.778,7.126-1.392,7.9-7.9.778,6.512,1.392,7.126,7.9,7.9" transform="translate(-297.653 -126.713)" fill="#ffec00"/><path d="M1147.308,136.6c-6.512.778-7.126,1.392-7.9,7.9-.778-6.512-1.392-7.126-7.9-7.9,6.512-.778,7.126-1.392,7.9-7.9.778,6.512,1.392,7.126,7.9,7.9" transform="translate(-668.11 -75.993)" fill="#ffec00"/><path d="M1336.108,454.3c-6.511.778-7.126,1.392-7.9,7.9-.778-6.512-1.392-7.126-7.9-7.9,6.512-.778,7.126-1.392,7.9-7.9.778,6.512,1.393,7.126,7.9,7.9" transform="translate(-779.589 -263.583)" fill="#ffec00"/><path d="M1133.308,704c-6.512.778-7.126,1.392-7.9,7.9-.778-6.512-1.392-7.126-7.9-7.9,6.512-.778,7.126-1.392,7.9-7.9.778,6.512,1.392,7.126,7.9,7.9" transform="translate(-659.843 -411.022)" fill="#ffec00"/><path d="M1139.308,428.3c-6.512.778-7.126,1.392-7.9,7.9-.778-6.512-1.392-7.126-7.9-7.9,6.512-.778,7.126-1.392,7.9-7.9.778,6.512,1.392,7.126,7.9,7.9" transform="translate(-663.386 -248.231)" fill="#ffec00"/><path d="M273.2,191.552c-8.191.983-9.01,1.761-9.952,9.952-.983-8.191-1.761-9.01-9.952-9.952,8.191-.983,9.01-1.761,9.952-9.952.983,8.191,1.761,9.01,9.952,9.952" transform="translate(-149.564 -107.228)" fill="#ffec00"/><path d="M34.008,526.2c-6.512.778-7.126,1.392-7.9,7.9-.778-6.512-1.392-7.126-7.9-7.9,6.512-.778,7.126-1.392,7.9-7.9.778,6.512,1.392,7.126,7.9,7.9" transform="translate(-10.746 -306.037)" fill="#ffec00"/><path d="M24.408,382.3c-6.512.778-7.126,1.392-7.9,7.9-.778-6.512-1.392-7.126-7.9-7.9,6.512-.778,7.126-1.392,7.9-7.9.778,6.512,1.392,7.126,7.9,7.9" transform="translate(-5.078 -221.07)" fill="#ffec00"/><path d="M342.108,56.6c-6.512.778-7.126,1.392-7.9,7.9-.778-6.512-1.392-7.126-7.9-7.9,6.512-.778,7.126-1.392,7.9-7.9.778,6.512,1.392,7.126,7.9,7.9" transform="translate(-192.668 -28.756)" fill="#ffec00"/><path d="M1279.208,584.1c-6.512.778-7.126,1.392-7.9,7.9-.778-6.512-1.392-7.126-7.9-7.9,6.512-.778,7.126-1.392,7.9-7.9.778,6.512,1.392,7.126,7.9,7.9" transform="translate(-745.992 -340.225)" fill="#ffec00"/><path d="M550.908,367.3c-6.512.778-7.126,1.392-7.9,7.9-.778-6.512-1.392-7.126-7.9-7.9,6.512-.778,7.126-1.392,7.9-7.9.778,6.512,1.393,7.126,7.9,7.9" transform="translate(-315.957 -212.213)" fill="#ffec00"/><path d="M631.808,733c-6.512.778-7.126,1.392-7.9,7.9-.778-6.512-1.392-7.126-7.9-7.9,6.512-.778,7.126-1.392,7.9-7.9.778,6.512,1.392,7.126,7.9,7.9" transform="translate(-363.726 -428.145)" fill="#ffec00"/><path d="M511.908,667.1c-6.512.778-7.126,1.392-7.9,7.9-.778-6.512-1.392-7.126-7.9-7.9,6.512-.778,7.126-1.392,7.9-7.9.778,6.512,1.392,7.126,7.9,7.9" transform="translate(-292.929 -389.234)" fill="#ffec00"/><path d="M646.808,966.8c-6.512.778-7.126,1.392-7.9,7.9-.778-6.512-1.392-7.126-7.9-7.9,6.512-.778,7.126-1.392,7.9-7.9.778,6.512,1.392,7.126,7.9,7.9" transform="translate(-372.583 -566.196)" fill="#ffec00"/><path d="M833.608,1251.2c-6.512.778-7.126,1.392-7.9,7.9-.778-6.512-1.392-7.126-7.9-7.9,6.512-.778,7.126-1.392,7.9-7.9.778,6.512,1.392,7.126,7.9,7.9" transform="translate(-482.881 -734.123)" fill="#ffec00"/><path d="M699.36,1382.18c-5.652.655-6.184,1.229-6.88,6.88-.655-5.651-1.229-6.184-6.88-6.88,5.652-.655,6.184-1.229,6.88-6.88.655,5.652,1.229,6.184,6.88,6.88" transform="translate(-404.822 -812.065)" fill="#ffec00"/><path d="M1174.308,786.9c-6.512.778-7.126,1.392-7.9,7.9-.778-6.512-1.392-7.126-7.9-7.9,6.512-.778,7.126-1.393,7.9-7.9.778,6.512,1.392,7.126,7.9,7.9" transform="translate(-684.052 -459.971)" fill="#ffec00"/><path d="M829.608,1139.6c-6.512.778-7.126,1.393-7.9,7.9-.778-6.511-1.392-7.167-7.9-7.9,6.512-.778,7.126-1.392,7.9-7.9.778,6.512,1.392,7.167,7.9,7.9" transform="translate(-480.519 -668.228)" fill="#ffec00"/><path d="M788.608,1212c-6.512.778-7.126,1.392-7.9,7.9-.778-6.512-1.392-7.126-7.9-7.9,6.512-.778,7.126-1.393,7.9-7.9.778,6.512,1.392,7.126,7.9,7.9" transform="translate(-456.31 -710.977)" fill="#ffec00"/><path d="M601.308,1225.2c-6.512.778-7.126,1.392-7.9,7.9-.778-6.512-1.393-7.126-7.9-7.9,6.512-.778,7.126-1.392,7.9-7.9.778,6.512,1.392,7.167,7.9,7.9" transform="translate(-345.717 -718.771)" fill="#ffec00"/><path d="M383.908,1102.3c-6.512.778-7.126,1.392-7.9,7.9-.778-6.512-1.392-7.126-7.9-7.9,6.512-.778,7.126-1.392,7.9-7.9.778,6.512,1.392,7.167,7.9,7.9" transform="translate(-217.35 -646.203)" fill="#ffec00"/><path d="M703.146,1519.923c-3.645.45-4.013.778-4.423,4.423-.45-3.645-.778-4.014-4.423-4.423,3.645-.451,4.013-.778,4.423-4.423.451,3.645.778,4.014,4.423,4.423" transform="translate(-409.959 -894.848)" fill="#ffec00"/><path d="M718.048,1471.924c-4.382.533-4.792.942-5.324,5.324-.532-4.382-.942-4.792-5.324-5.324,4.382-.532,4.792-.942,5.324-5.324.532,4.382.942,4.792,5.324,5.324" transform="translate(-417.694 -865.974)" fill="#ffec00"/><path d="M689.114,1450.407c-5.2.614-5.693,1.106-6.307,6.307-.614-5.2-1.106-5.693-6.307-6.307,5.2-.614,5.693-1.106,6.307-6.307.614,5.2,1.106,5.693,6.307,6.307" transform="translate(-399.449 -852.688)" fill="#ffec00"/><path d="M230.208,893.8c-6.512.778-7.126,1.392-7.9,7.9-.778-6.512-1.392-7.126-7.9-7.9,6.512-.778,7.126-1.393,7.9-7.9.778,6.512,1.392,7.126,7.9,7.9" transform="translate(-126.595 -523.092)" fill="#ffec00"/><path d="M501.408,1173.3c-6.512.778-7.126,1.392-7.9,7.9-.778-6.512-1.392-7.126-7.9-7.9,6.512-.778,7.126-1.392,7.9-7.9.778,6.512,1.392,7.126,7.9,7.9" transform="translate(-286.729 -688.126)" fill="#ffec00"/><path d="M399.008,189.5c-6.512.778-7.126,1.392-7.9,7.9-.778-6.512-1.392-7.126-7.9-7.9,6.512-.778,7.126-1.392,7.9-7.9.778,6.512,1.392,7.126,7.9,7.9" transform="translate(-226.266 -107.228)" fill="#ffec00"/><path d="M603.808,150.5c-6.512.778-7.126,1.392-7.9,7.9-.778-6.512-1.392-7.126-7.9-7.9,6.512-.778,7.126-1.392,7.9-7.9.778,6.512,1.392,7.126,7.9,7.9" transform="translate(-347.193 -84.2)" fill="#ffec00"/><path d="M74.308,799.9c-6.512.778-7.126,1.392-7.9,7.9-.778-6.512-1.392-7.126-7.9-7.9,6.512-.778,7.126-1.393,7.9-7.9.778,6.512,1.392,7.126,7.9,7.9" transform="translate(-34.542 -467.647)" fill="#ffec00"/><path d="M877.608,199.5c-6.512.778-7.126,1.392-7.9,7.9-.778-6.512-1.393-7.126-7.9-7.9,6.512-.778,7.126-1.392,7.9-7.9.778,6.512,1.392,7.126,7.9,7.9" transform="translate(-508.862 -113.133)" fill="#ffec00"/><path d="M646.808,1327.2c-6.512.778-7.126,1.392-7.9,7.9-.778-6.512-1.392-7.126-7.9-7.9,6.512-.778,7.126-1.393,7.9-7.9.778,6.512,1.392,7.126,7.9,7.9" transform="translate(-372.583 -778.999)" fill="#ffec00"/><path d="M735.308,1346.1c-6.512.778-7.126,1.392-7.9,7.9-.778-6.512-1.392-7.126-7.9-7.9,6.512-.778,7.126-1.392,7.9-7.9.778,6.512,1.392,7.126,7.9,7.9" transform="translate(-424.839 -790.158)" fill="#ffec00"/><path d="M1180.308,972.8c-6.512.778-7.126,1.392-7.9,7.9-.778-6.512-1.392-7.126-7.9-7.9,6.512-.778,7.126-1.392,7.9-7.9.778,6.512,1.392,7.126,7.9,7.9" transform="translate(-687.595 -569.738)" fill="#ffec00"/><path d="M1039.408,993.7c-6.512.778-7.126,1.392-7.9,7.9-.778-6.512-1.392-7.126-7.9-7.9,6.512-.778,7.126-1.392,7.9-7.9.778,6.512,1.392,7.126,7.9,7.9" transform="translate(-604.399 -582.079)" fill="#ffec00"/><path d="M539.908,1019.7c-6.512.778-7.126,1.392-7.9,7.9-.778-6.512-1.392-7.126-7.9-7.9,6.512-.778,7.126-1.392,7.9-7.9.778,6.512,1.392,7.126,7.9,7.9" transform="translate(-309.462 -597.431)" fill="#ffec00"/><path d="M993.508,847.9c-6.512.778-7.126,1.392-7.9,7.9-.778-6.512-1.392-7.126-7.9-7.9,6.512-.778,7.126-1.393,7.9-7.9.778,6.512,1.392,7.126,7.9,7.9" transform="translate(-577.296 -495.989)" fill="#ffec00"/><path d="M470.008,1085.7c-6.512.778-7.126,1.392-7.9,7.9-.778-6.512-1.392-7.126-7.9-7.9,6.512-.778,7.126-1.393,7.9-7.9.778,6.511,1.392,7.126,7.9,7.9" transform="translate(-268.189 -636.402)" fill="#ffec00"/><path d="M152.208,877.9c-6.512.778-7.126,1.392-7.9,7.9-.778-6.512-1.392-7.126-7.9-7.9,6.512-.778,7.126-1.393,7.9-7.9.778,6.512,1.392,7.126,7.9,7.9" transform="translate(-80.539 -513.703)" fill="#ffec00"/><path d="M965.508,1099.7c-6.512.778-7.126,1.392-7.9,7.9-.778-6.512-1.392-7.126-7.9-7.9,6.512-.778,7.126-1.392,7.9-7.9.778,6.512,1.392,7.126,7.9,7.9" transform="translate(-560.763 -644.668)" fill="#ffec00"/></g></g></g></svg>